<svg height='100px' width='100px'  fill="#00a4e2" xmlns="http://www.w3.org/2000/svg" data-name="Layer 1" viewBox="0 0 512 512" x="0px" y="0px"><title>22</title><path d="M512,300.27c-1,10-1.63,20-3.08,29.91-8,54.89-31.42,102.25-69.91,142.18a17.07,17.07,0,0,1-1.58,1.29c-27.19-81.95-83.31-128.23-170.06-138.82,33.18-4.86,59.19-20.3,76.92-48.08,17.88-28,21.44-58.29,11.13-89.77-15.72-48-62.37-76.75-113.71-70.72-46.84,5.5-86,46.74-90.29,93.63-5.15,56.12,35.45,108.93,92.29,115.05C158.09,345.23,102,391.51,74.46,473.88c-2.79-2.94-5.75-5.86-8.5-9C25.67,419.26,3.68,366.14.76,305.23a47,47,0,0,0-.76-5V288a45.53,45.53,0,0,0,.76-5c2.3-51.55,18.44-98.41,49.19-139.77,42.77-57.54,99.94-91.65,171-102.15,9.59-1.42,19.29-2,28.95-3h12.29a36.31,36.31,0,0,0,4.5.74c47.34,2,91,15.72,130.21,42.22q95,64.22,112.18,178c1.44,9.56,2,19.26,3,28.89v12.29Z"></path></svg>